<mxfile host="app.diagrams.net" agent="Mozilla/5.0 (Windows NT 10.0; Win64; x64) AppleWebKit/537.36 (KHTML, like Gecko) Chrome/131.0.0.0 Safari/537.36" version="26.0.8">
  <diagram name="Page-1" id="e2ArdMHhzv_OrXprheBn">
    <mxGraphModel dx="1050" dy="557" grid="1" gridSize="10" guides="1" tooltips="1" connect="1" arrows="1" fold="1" page="1" pageScale="1" pageWidth="827" pageHeight="1169" math="0" shadow="0">
      <root>
        <mxCell id="0" />
        <mxCell id="1" parent="0" />
        <mxCell id="U4BreIy_PUs1d_vO0f3u-11" value="" style="rounded=0;whiteSpace=wrap;html=1;" vertex="1" parent="1">
          <mxGeometry x="156" y="80" width="516" height="220" as="geometry" />
        </mxCell>
        <mxCell id="U4BreIy_PUs1d_vO0f3u-5" value="" style="rounded=0;whiteSpace=wrap;html=1;" vertex="1" parent="1">
          <mxGeometry x="264" y="110" width="300" height="170" as="geometry" />
        </mxCell>
        <mxCell id="U4BreIy_PUs1d_vO0f3u-1" value="Event" style="rounded=1;whiteSpace=wrap;html=1;" vertex="1" parent="1">
          <mxGeometry x="334" y="150" width="120" height="60" as="geometry" />
        </mxCell>
        <mxCell id="U4BreIy_PUs1d_vO0f3u-2" value="Event" style="rounded=1;whiteSpace=wrap;html=1;" vertex="1" parent="1">
          <mxGeometry x="344" y="160" width="120" height="60" as="geometry" />
        </mxCell>
        <mxCell id="U4BreIy_PUs1d_vO0f3u-3" value="Event" style="rounded=1;whiteSpace=wrap;html=1;" vertex="1" parent="1">
          <mxGeometry x="354" y="170" width="120" height="60" as="geometry" />
        </mxCell>
        <mxCell id="U4BreIy_PUs1d_vO0f3u-44" style="edgeStyle=orthogonalEdgeStyle;rounded=0;orthogonalLoop=1;jettySize=auto;html=1;exitX=0.5;exitY=1;exitDx=0;exitDy=0;entryX=0.5;entryY=0;entryDx=0;entryDy=0;" edge="1" parent="1" source="U4BreIy_PUs1d_vO0f3u-4" target="U4BreIy_PUs1d_vO0f3u-38">
          <mxGeometry relative="1" as="geometry">
            <Array as="points">
              <mxPoint x="424" y="260" />
              <mxPoint x="663" y="260" />
            </Array>
          </mxGeometry>
        </mxCell>
        <mxCell id="U4BreIy_PUs1d_vO0f3u-4" value="Event" style="rounded=1;whiteSpace=wrap;html=1;" vertex="1" parent="1">
          <mxGeometry x="364" y="180" width="120" height="60" as="geometry" />
        </mxCell>
        <mxCell id="U4BreIy_PUs1d_vO0f3u-6" value="Socket Monitor" style="text;html=1;align=center;verticalAlign=middle;whiteSpace=wrap;rounded=0;" vertex="1" parent="1">
          <mxGeometry x="354" y="80" width="120" height="30" as="geometry" />
        </mxCell>
        <mxCell id="U4BreIy_PUs1d_vO0f3u-12" value="OS" style="text;html=1;align=center;verticalAlign=middle;whiteSpace=wrap;rounded=0;" vertex="1" parent="1">
          <mxGeometry x="376" y="40" width="60" height="30" as="geometry" />
        </mxCell>
        <mxCell id="U4BreIy_PUs1d_vO0f3u-55" style="edgeStyle=orthogonalEdgeStyle;rounded=0;orthogonalLoop=1;jettySize=auto;html=1;exitX=0.5;exitY=1;exitDx=0;exitDy=0;entryX=0.5;entryY=0;entryDx=0;entryDy=0;" edge="1" parent="1" source="U4BreIy_PUs1d_vO0f3u-27" target="U4BreIy_PUs1d_vO0f3u-52">
          <mxGeometry relative="1" as="geometry" />
        </mxCell>
        <mxCell id="U4BreIy_PUs1d_vO0f3u-56" style="edgeStyle=orthogonalEdgeStyle;rounded=0;orthogonalLoop=1;jettySize=auto;html=1;exitX=1;exitY=0.5;exitDx=0;exitDy=0;entryX=0;entryY=0.5;entryDx=0;entryDy=0;" edge="1" parent="1" source="U4BreIy_PUs1d_vO0f3u-27" target="U4BreIy_PUs1d_vO0f3u-29">
          <mxGeometry relative="1" as="geometry" />
        </mxCell>
        <mxCell id="U4BreIy_PUs1d_vO0f3u-27" value="Read Event" style="whiteSpace=wrap;html=1;" vertex="1" parent="1">
          <mxGeometry x="122.5" y="522" width="120" height="60" as="geometry" />
        </mxCell>
        <mxCell id="U4BreIy_PUs1d_vO0f3u-60" style="edgeStyle=orthogonalEdgeStyle;rounded=0;orthogonalLoop=1;jettySize=auto;html=1;exitX=0.5;exitY=1;exitDx=0;exitDy=0;" edge="1" parent="1" source="U4BreIy_PUs1d_vO0f3u-28" target="U4BreIy_PUs1d_vO0f3u-52">
          <mxGeometry relative="1" as="geometry" />
        </mxCell>
        <mxCell id="U4BreIy_PUs1d_vO0f3u-28" value="Write Event" style="whiteSpace=wrap;html=1;" vertex="1" parent="1">
          <mxGeometry x="575" y="522" width="120" height="60" as="geometry" />
        </mxCell>
        <mxCell id="U4BreIy_PUs1d_vO0f3u-57" style="edgeStyle=orthogonalEdgeStyle;rounded=0;orthogonalLoop=1;jettySize=auto;html=1;exitX=0.5;exitY=1;exitDx=0;exitDy=0;entryX=0.5;entryY=0;entryDx=0;entryDy=0;" edge="1" parent="1" source="U4BreIy_PUs1d_vO0f3u-29" target="U4BreIy_PUs1d_vO0f3u-52">
          <mxGeometry relative="1" as="geometry" />
        </mxCell>
        <mxCell id="U4BreIy_PUs1d_vO0f3u-29" value="Read-Complete" style="whiteSpace=wrap;html=1;" vertex="1" parent="1">
          <mxGeometry x="272.5" y="522" width="120" height="60" as="geometry" />
        </mxCell>
        <mxCell id="U4BreIy_PUs1d_vO0f3u-58" style="edgeStyle=orthogonalEdgeStyle;rounded=0;orthogonalLoop=1;jettySize=auto;html=1;exitX=0.5;exitY=1;exitDx=0;exitDy=0;entryX=0.5;entryY=0;entryDx=0;entryDy=0;" edge="1" parent="1" source="U4BreIy_PUs1d_vO0f3u-31" target="U4BreIy_PUs1d_vO0f3u-52">
          <mxGeometry relative="1" as="geometry" />
        </mxCell>
        <mxCell id="U4BreIy_PUs1d_vO0f3u-59" style="edgeStyle=orthogonalEdgeStyle;rounded=0;orthogonalLoop=1;jettySize=auto;html=1;exitX=1;exitY=0.5;exitDx=0;exitDy=0;" edge="1" parent="1" source="U4BreIy_PUs1d_vO0f3u-31">
          <mxGeometry relative="1" as="geometry">
            <mxPoint x="572.5" y="552" as="targetPoint" />
          </mxGeometry>
        </mxCell>
        <mxCell id="U4BreIy_PUs1d_vO0f3u-31" value="Write-Complete" style="whiteSpace=wrap;html=1;" vertex="1" parent="1">
          <mxGeometry x="426.5" y="522" width="120" height="60" as="geometry" />
        </mxCell>
        <mxCell id="U4BreIy_PUs1d_vO0f3u-33" style="edgeStyle=orthogonalEdgeStyle;rounded=0;orthogonalLoop=1;jettySize=auto;html=1;exitX=0;exitY=0.5;exitDx=0;exitDy=0;entryX=1;entryY=0.5;entryDx=0;entryDy=0;" edge="1" parent="1" source="U4BreIy_PUs1d_vO0f3u-34" target="U4BreIy_PUs1d_vO0f3u-39">
          <mxGeometry relative="1" as="geometry" />
        </mxCell>
        <mxCell id="U4BreIy_PUs1d_vO0f3u-34" value="Event&lt;div&gt;(any)&lt;/div&gt;" style="rounded=1;whiteSpace=wrap;html=1;" vertex="1" parent="1">
          <mxGeometry x="303" y="360" width="120" height="60" as="geometry" />
        </mxCell>
        <mxCell id="U4BreIy_PUs1d_vO0f3u-35" style="edgeStyle=orthogonalEdgeStyle;rounded=0;orthogonalLoop=1;jettySize=auto;html=1;exitX=0;exitY=0.5;exitDx=0;exitDy=0;" edge="1" parent="1" source="U4BreIy_PUs1d_vO0f3u-36">
          <mxGeometry relative="1" as="geometry">
            <mxPoint x="425" y="390" as="targetPoint" />
          </mxGeometry>
        </mxCell>
        <mxCell id="U4BreIy_PUs1d_vO0f3u-36" value="Event&lt;div&gt;(any)&lt;/div&gt;" style="rounded=1;whiteSpace=wrap;html=1;" vertex="1" parent="1">
          <mxGeometry x="455" y="360" width="120" height="60" as="geometry" />
        </mxCell>
        <mxCell id="U4BreIy_PUs1d_vO0f3u-37" style="edgeStyle=orthogonalEdgeStyle;rounded=0;orthogonalLoop=1;jettySize=auto;html=1;exitX=0;exitY=0.5;exitDx=0;exitDy=0;entryX=1;entryY=0.5;entryDx=0;entryDy=0;" edge="1" parent="1" source="U4BreIy_PUs1d_vO0f3u-38" target="U4BreIy_PUs1d_vO0f3u-36">
          <mxGeometry relative="1" as="geometry" />
        </mxCell>
        <mxCell id="U4BreIy_PUs1d_vO0f3u-38" value="Event&lt;div&gt;(socket)&lt;/div&gt;" style="rounded=1;whiteSpace=wrap;html=1;" vertex="1" parent="1">
          <mxGeometry x="603" y="360" width="120" height="60" as="geometry" />
        </mxCell>
        <mxCell id="U4BreIy_PUs1d_vO0f3u-39" value="Process Event Loop" style="ellipse;whiteSpace=wrap;html=1;aspect=fixed;" vertex="1" parent="1">
          <mxGeometry x="125" y="330" width="120" height="120" as="geometry" />
        </mxCell>
        <mxCell id="U4BreIy_PUs1d_vO0f3u-41" value="Asynchronous IO" style="text;html=1;align=center;verticalAlign=middle;resizable=0;points=[];autosize=1;strokeColor=none;fillColor=none;" vertex="1" parent="1">
          <mxGeometry x="356.5" y="480" width="120" height="30" as="geometry" />
        </mxCell>
        <mxCell id="U4BreIy_PUs1d_vO0f3u-43" value="Event Queue" style="text;html=1;align=center;verticalAlign=middle;whiteSpace=wrap;rounded=0;" vertex="1" parent="1">
          <mxGeometry x="457.5" y="320" width="115" height="30" as="geometry" />
        </mxCell>
        <mxCell id="U4BreIy_PUs1d_vO0f3u-47" style="edgeStyle=orthogonalEdgeStyle;rounded=0;orthogonalLoop=1;jettySize=auto;html=1;exitX=0;exitY=0.5;exitDx=0;exitDy=0;entryX=1;entryY=0.5;entryDx=0;entryDy=0;" edge="1" source="U4BreIy_PUs1d_vO0f3u-48" target="U4BreIy_PUs1d_vO0f3u-53" parent="1">
          <mxGeometry relative="1" as="geometry" />
        </mxCell>
        <mxCell id="U4BreIy_PUs1d_vO0f3u-48" value="Event&lt;div&gt;(any)&lt;/div&gt;" style="rounded=1;whiteSpace=wrap;html=1;" vertex="1" parent="1">
          <mxGeometry x="305.5" y="715" width="120" height="60" as="geometry" />
        </mxCell>
        <mxCell id="U4BreIy_PUs1d_vO0f3u-49" style="edgeStyle=orthogonalEdgeStyle;rounded=0;orthogonalLoop=1;jettySize=auto;html=1;exitX=0;exitY=0.5;exitDx=0;exitDy=0;" edge="1" source="U4BreIy_PUs1d_vO0f3u-50" parent="1">
          <mxGeometry relative="1" as="geometry">
            <mxPoint x="427.5" y="745" as="targetPoint" />
          </mxGeometry>
        </mxCell>
        <mxCell id="U4BreIy_PUs1d_vO0f3u-50" value="Event&lt;div&gt;(any)&lt;/div&gt;" style="rounded=1;whiteSpace=wrap;html=1;" vertex="1" parent="1">
          <mxGeometry x="457.5" y="715" width="120" height="60" as="geometry" />
        </mxCell>
        <mxCell id="U4BreIy_PUs1d_vO0f3u-51" style="edgeStyle=orthogonalEdgeStyle;rounded=0;orthogonalLoop=1;jettySize=auto;html=1;exitX=0;exitY=0.5;exitDx=0;exitDy=0;entryX=1;entryY=0.5;entryDx=0;entryDy=0;" edge="1" source="U4BreIy_PUs1d_vO0f3u-52" target="U4BreIy_PUs1d_vO0f3u-50" parent="1">
          <mxGeometry relative="1" as="geometry" />
        </mxCell>
        <mxCell id="U4BreIy_PUs1d_vO0f3u-52" value="Event&lt;div&gt;(socket)&lt;/div&gt;" style="rounded=1;whiteSpace=wrap;html=1;" vertex="1" parent="1">
          <mxGeometry x="605.5" y="715" width="120" height="60" as="geometry" />
        </mxCell>
        <mxCell id="U4BreIy_PUs1d_vO0f3u-53" value="Process Event Loop" style="ellipse;whiteSpace=wrap;html=1;aspect=fixed;" vertex="1" parent="1">
          <mxGeometry x="127.5" y="685" width="120" height="120" as="geometry" />
        </mxCell>
        <mxCell id="U4BreIy_PUs1d_vO0f3u-54" value="Event Queue" style="text;html=1;align=center;verticalAlign=middle;whiteSpace=wrap;rounded=0;" vertex="1" parent="1">
          <mxGeometry x="460" y="675" width="115" height="30" as="geometry" />
        </mxCell>
        <mxCell id="U4BreIy_PUs1d_vO0f3u-61" value="Windows&lt;div&gt;IO Completion Port&lt;/div&gt;&lt;div&gt;(IOCP)&lt;/div&gt;" style="whiteSpace=wrap;html=1;" vertex="1" parent="1">
          <mxGeometry x="201" y="920" width="120" height="60" as="geometry" />
        </mxCell>
        <mxCell id="U4BreIy_PUs1d_vO0f3u-62" value="Linux&lt;div&gt;(EPoll)&lt;/div&gt;" style="whiteSpace=wrap;html=1;" vertex="1" parent="1">
          <mxGeometry x="353.5" y="920" width="120" height="60" as="geometry" />
        </mxCell>
        <mxCell id="U4BreIy_PUs1d_vO0f3u-63" value="MacOS/FreeBSD&lt;div&gt;(kqueue)&lt;/div&gt;" style="whiteSpace=wrap;html=1;" vertex="1" parent="1">
          <mxGeometry x="505.5" y="920" width="120" height="60" as="geometry" />
        </mxCell>
        <mxCell id="U4BreIy_PUs1d_vO0f3u-65" style="edgeStyle=orthogonalEdgeStyle;rounded=0;orthogonalLoop=1;jettySize=auto;html=1;exitX=0.5;exitY=1;exitDx=0;exitDy=0;" edge="1" parent="1" source="U4BreIy_PUs1d_vO0f3u-64" target="U4BreIy_PUs1d_vO0f3u-61">
          <mxGeometry relative="1" as="geometry" />
        </mxCell>
        <mxCell id="U4BreIy_PUs1d_vO0f3u-66" style="edgeStyle=orthogonalEdgeStyle;rounded=0;orthogonalLoop=1;jettySize=auto;html=1;exitX=0.5;exitY=1;exitDx=0;exitDy=0;" edge="1" parent="1" source="U4BreIy_PUs1d_vO0f3u-64" target="U4BreIy_PUs1d_vO0f3u-62">
          <mxGeometry relative="1" as="geometry" />
        </mxCell>
        <mxCell id="U4BreIy_PUs1d_vO0f3u-67" style="edgeStyle=orthogonalEdgeStyle;rounded=0;orthogonalLoop=1;jettySize=auto;html=1;exitX=0.5;exitY=1;exitDx=0;exitDy=0;" edge="1" parent="1" source="U4BreIy_PUs1d_vO0f3u-64" target="U4BreIy_PUs1d_vO0f3u-63">
          <mxGeometry relative="1" as="geometry" />
        </mxCell>
        <mxCell id="U4BreIy_PUs1d_vO0f3u-64" value="Kernel-level&lt;div&gt;Asynchronous IO&lt;/div&gt;" style="whiteSpace=wrap;html=1;" vertex="1" parent="1">
          <mxGeometry x="354" y="820" width="120" height="60" as="geometry" />
        </mxCell>
      </root>
    </mxGraphModel>
  </diagram>
</mxfile>
